<svg width="20" height="20" viewBox="0 0 20 20" fill="none" xmlns="http://www.w3.org/2000/svg">
<path d="M7 10.5L9.16667 13L13.5 8" stroke="white" stroke-linecap="round" stroke-linejoin="round"/>
<path d="M14.5833 18.7501H5.41659C4.53253 18.7501 3.68468 18.3989 3.05956 17.7738C2.43444 17.1486 2.08325 16.3008 2.08325 15.4167V6.25008C2.08325 5.36603 2.43444 4.51818 3.05956 3.89306C3.68468 3.26794 4.53253 2.91675 5.41659 2.91675H14.5833C15.4673 2.91675 16.3152 3.26794 16.9403 3.89306C17.5654 4.51818 17.9166 5.36603 17.9166 6.25008V15.4167C17.9166 16.3008 17.5654 17.1486 16.9403 17.7738C16.3152 18.3989 15.4673 18.7501 14.5833 18.7501ZM5.41659 4.58341C4.97456 4.58341 4.55063 4.75901 4.23807 5.07157C3.92551 5.38413 3.74992 5.80805 3.74992 6.25008V15.4167C3.74992 15.8588 3.92551 16.2827 4.23807 16.5953C4.55063 16.9078 4.97456 17.0834 5.41659 17.0834H14.5833C15.0253 17.0834 15.4492 16.9078 15.7618 16.5953C16.0743 16.2827 16.2499 15.8588 16.2499 15.4167V6.25008C16.2499 5.80805 16.0743 5.38413 15.7618 5.07157C15.4492 4.75901 15.0253 4.58341 14.5833 4.58341H5.41659Z" fill="white"/>
<path d="M6.66659 6.25C6.44557 6.25 6.23361 6.1622 6.07733 6.00592C5.92105 5.84964 5.83325 5.63768 5.83325 5.41667V2.08333C5.83325 1.86232 5.92105 1.65036 6.07733 1.49408C6.23361 1.3378 6.44557 1.25 6.66659 1.25C6.8876 1.25 7.09956 1.3378 7.25584 1.49408C7.41212 1.65036 7.49992 1.86232 7.49992 2.08333V5.41667C7.49992 5.63768 7.41212 5.84964 7.25584 6.00592C7.09956 6.1622 6.8876 6.25 6.66659 6.25V6.25Z" fill="white"/>
<path d="M9.99984 6.25C9.77882 6.25 9.56686 6.1622 9.41058 6.00592C9.2543 5.84964 9.1665 5.63768 9.1665 5.41667V2.08333C9.1665 1.86232 9.2543 1.65036 9.41058 1.49408C9.56686 1.3378 9.77882 1.25 9.99984 1.25C10.2209 1.25 10.4328 1.3378 10.5891 1.49408C10.7454 1.65036 10.8332 1.86232 10.8332 2.08333V5.41667C10.8332 5.63768 10.7454 5.84964 10.5891 6.00592C10.4328 6.1622 10.2209 6.25 9.99984 6.25Z" fill="white"/>
<path d="M13.3333 6.25C13.1123 6.25 12.9004 6.1622 12.7441 6.00592C12.5878 5.84964 12.5 5.63768 12.5 5.41667V2.08333C12.5 1.86232 12.5878 1.65036 12.7441 1.49408C12.9004 1.3378 13.1123 1.25 13.3333 1.25C13.5543 1.25 13.7663 1.3378 13.9226 1.49408C14.0789 1.65036 14.1667 1.86232 14.1667 2.08333V5.41667C14.1667 5.63768 14.0789 5.84964 13.9226 6.00592C13.7663 6.1622 13.5543 6.25 13.3333 6.25Z" fill="white"/>
</svg>
