<svg width="20" height="20" viewBox="0 0 20 20" fill="none" xmlns="http://www.w3.org/2000/svg">
<g clip-path="url(#clip0_1120_2887)">
<path fill-rule="evenodd" clip-rule="evenodd" d="M18.3334 7.71682V13.4139C18.3334 14.9481 17.0898 16.1917 15.5556 16.1917H14.6297C14.1183 16.1917 13.7038 15.7772 13.7038 15.2658C13.7038 14.7544 14.1183 14.3399 14.6297 14.3399H15.5556C16.067 14.3399 16.4816 13.9253 16.4816 13.4139V7.71682C16.4816 7.42842 16.3472 7.15649 16.1181 6.9813L10.5625 2.73294C10.2305 2.47906 9.76963 2.47906 9.43763 2.73293L3.88207 6.9813C3.65298 7.15649 3.5186 7.42842 3.5186 7.71682V13.4139C3.5186 13.9253 3.93315 14.3399 4.44453 14.3399H5.37045C5.88183 14.3399 6.29638 14.7544 6.29638 15.2658C6.29638 15.7772 5.88183 16.1917 5.37045 16.1917H4.44453C2.9104 16.1917 1.66675 14.9481 1.66675 13.4139V7.71682C1.66675 6.85162 2.06989 6.03583 2.75716 5.51027L8.31272 1.2619C9.30871 0.500262 10.6915 0.500267 11.6874 1.2619L17.243 5.51027C17.9303 6.03583 18.3334 6.85162 18.3334 7.71682ZM8.07415 13.4139V10.6362C8.07415 9.57251 8.93642 8.71024 10.0001 8.71024C11.0637 8.71024 11.926 9.57251 11.926 10.6362V13.4139C11.926 14.4776 11.0637 15.3399 10.0001 15.3399C8.93642 15.3399 8.07415 14.4776 8.07415 13.4139ZM10.926 10.6362C10.926 10.1248 10.5115 9.71024 10.0001 9.71024C9.48871 9.71024 9.07415 10.1248 9.07415 10.6362V13.4139C9.07415 13.9253 9.48871 14.3399 10.0001 14.3399C10.5115 14.3399 10.926 13.9253 10.926 13.4139V10.6362Z" fill="white"/>
</g>
<defs>
<clipPath id="clip0_1120_2887">
<rect width="20" height="20" fill="white"/>
</clipPath>
</defs>
</svg>
