<svg width="18" height="18" viewBox="0 0 18 18" fill="none" xmlns="http://www.w3.org/2000/svg">
<path d="M8.07479 2.25583C8.41414 1.42845 9.58586 1.42845 9.92521 2.25584L11.3872 5.82038C11.5308 6.17061 11.8599 6.40971 12.2374 6.4381L16.0792 6.727C16.971 6.79406 17.3331 7.90844 16.651 8.48685L13.7127 10.9788C13.424 11.2236 13.2983 11.6105 13.388 11.9782L14.3004 15.7213C14.5122 16.5902 13.5643 17.2789 12.8034 16.809L9.52546 14.7845C9.20339 14.5856 8.79661 14.5856 8.47454 14.7845L5.1966 16.809C4.43575 17.2789 3.4878 16.5902 3.69959 15.7213L4.61202 11.9782C4.70167 11.6105 4.57597 11.2236 4.28727 10.9788L1.34896 8.48685C0.666933 7.90844 1.02902 6.79406 1.92077 6.727L5.76262 6.4381C6.1401 6.40971 6.46919 6.17061 6.61284 5.82038L8.07479 2.25583Z" stroke="white" stroke-width="1.5"/>
</svg>
