<svg width="20" height="20" viewBox="0 0 20 20" fill="none" xmlns="http://www.w3.org/2000/svg">
<path d="M10.0001 18.3334C8.35191 18.3334 6.74074 17.8447 5.37033 16.929C3.99992 16.0133 2.93182 14.7118 2.30109 13.1891C1.67036 11.6664 1.50533 9.99084 1.82687 8.37433C2.14842 6.75782 2.94209 5.27297 4.10753 4.10753C5.27297 2.94209 6.75782 2.14842 8.37433 1.82687C9.99084 1.50533 11.6664 1.67036 13.1891 2.30109C14.7118 2.93182 16.0133 3.99992 16.929 5.37033C17.8447 6.74074 18.3334 8.35191 18.3334 10.0001C18.3334 12.2102 17.4554 14.3298 15.8926 15.8926C14.3298 17.4554 12.2102 18.3334 10.0001 18.3334V18.3334ZM10.0001 3.33342C8.68154 3.33342 7.39261 3.72441 6.29628 4.45695C5.19996 5.1895 4.34547 6.23069 3.84089 7.44886C3.3363 8.66704 3.20428 10.0075 3.46152 11.3007C3.71875 12.5939 4.35369 13.7818 5.28604 14.7141C6.21839 15.6465 7.40628 16.2814 8.69948 16.5387C9.99269 16.7959 11.3331 16.6639 12.5513 16.1593C13.7695 15.6547 14.8107 14.8002 15.5432 13.7039C16.2758 12.6076 16.6667 11.3186 16.6667 10.0001C16.6667 8.23197 15.9644 6.53628 14.7141 5.28604C13.4639 4.0358 11.7682 3.33342 10.0001 3.33342V3.33342Z" fill="white"/>
<path d="M17.5001 10.8334H10.0001C9.77907 10.8334 9.56711 10.7456 9.41083 10.5893C9.25455 10.4331 9.16675 10.2211 9.16675 10.0001V2.50008C9.16675 2.27907 9.25455 2.06711 9.41083 1.91083C9.56711 1.75455 9.77907 1.66675 10.0001 1.66675C10.2211 1.66675 10.4331 1.75455 10.5893 1.91083C10.7456 2.06711 10.8334 2.27907 10.8334 2.50008V9.16675H17.5001C17.7211 9.16675 17.9331 9.25455 18.0893 9.41083C18.2456 9.56711 18.3334 9.77907 18.3334 10.0001C18.3334 10.2211 18.2456 10.4331 18.0893 10.5893C17.9331 10.7456 17.7211 10.8334 17.5001 10.8334Z" fill="white"/>
</svg>
